<?xml version="1.0" encoding="UTF-8" standalone="no"?>
<!DOCTYPE svg PUBLIC "-//W3C//DTD SVG 1.1//EN"
 "http://www.w3.org/Graphics/SVG/1.1/DTD/svg11.dtd">
<!-- Generated by graphviz version 2.43.0 (0)
 -->
<!-- Title: model_graph Pages: 1 -->
<svg width="289pt" height="414pt"
 viewBox="0.00 0.00 289.30 414.00" xmlns="http://www.w3.org/2000/svg" xmlns:xlink="http://www.w3.org/1999/xlink">
<g id="graph0" class="graph" transform="scale(1 1) rotate(0) translate(4 410)">
<title>model_graph</title>
<polygon fill="white" stroke="transparent" points="-4,4 -4,-410 285.3,-410 285.3,4 -4,4"/>
<!-- articles_models_Article -->
<g id="node1" class="node">
<title>articles_models_Article</title>
<polygon fill="white" stroke="transparent" points="50.5,-114 50.5,-280 238.5,-280 238.5,-114 50.5,-114"/>
<polygon fill="#1b563f" stroke="transparent" points="51.5,-259 51.5,-279 237.5,-279 237.5,-259 51.5,-259"/>
<text text-anchor="start" x="115.32" y="-267" font-family="Roboto" font-size="8.00"> &#160;&#160;&#160;</text>
<text text-anchor="start" x="124.21" y="-267" font-family="Roboto" font-weight="bold" font-size="10.00" fill="white"> &#160;&#160;&#160;Article &#160;&#160;&#160;</text>
<text text-anchor="start" x="53.5" y="-251.6" font-family="Roboto" font-size="8.00"> &#160;&#160;&#160;</text>
<text text-anchor="start" x="62.39" y="-251.6" font-family="Roboto" font-weight="bold" font-size="8.00">id</text>
<text text-anchor="start" x="68.62" y="-251.6" font-family="Roboto" font-size="8.00"> &#160;&#160;&#160;</text>
<text text-anchor="start" x="163.5" y="-251.6" font-family="Roboto" font-size="8.00"> &#160;&#160;&#160;</text>
<text text-anchor="start" x="172.39" y="-251.6" font-family="Roboto" font-weight="bold" font-size="8.00">AutoField</text>
<text text-anchor="start" x="206.19" y="-251.6" font-family="Roboto" font-size="8.00"> &#160;&#160;&#160;</text>
<text text-anchor="start" x="53.5" y="-239.6" font-family="Roboto" font-size="8.00"> &#160;&#160;&#160;</text>
<text text-anchor="start" x="62.39" y="-239.6" font-family="Roboto" font-weight="bold" font-size="8.00">publisher</text>
<text text-anchor="start" x="94.86" y="-239.6" font-family="Roboto" font-size="8.00"> &#160;&#160;&#160;</text>
<text text-anchor="start" x="163.27" y="-239.6" font-family="Roboto" font-size="8.00"> &#160;&#160;&#160;</text>
<text text-anchor="start" x="172.16" y="-239.6" font-family="Roboto" font-weight="bold" font-size="8.00">ForeignKey (id)</text>
<text text-anchor="start" x="226.84" y="-239.6" font-family="Roboto" font-size="8.00"> &#160;&#160;&#160;</text>
<text text-anchor="start" x="53.5" y="-227.6" font-family="Roboto" font-size="8.00"> &#160;&#160;&#160;</text>
<text text-anchor="start" x="62.39" y="-227.6" font-family="Roboto" font-size="8.00">creation_date</text>
<text text-anchor="start" x="110.87" y="-227.6" font-family="Roboto" font-size="8.00"> &#160;&#160;&#160;</text>
<text text-anchor="start" x="163.5" y="-227.6" font-family="Roboto" font-size="8.00"> &#160;&#160;&#160;</text>
<text text-anchor="start" x="172.39" y="-227.6" font-family="Roboto" font-size="8.00">DateTimeField</text>
<text text-anchor="start" x="224.11" y="-227.6" font-family="Roboto" font-size="8.00"> &#160;&#160;&#160;</text>
<text text-anchor="start" x="53.5" y="-215.6" font-family="Roboto" font-size="8.00"> &#160;&#160;&#160;</text>
<text text-anchor="start" x="62.39" y="-215.6" font-family="Roboto" font-size="8.00">image_url</text>
<text text-anchor="start" x="97.52" y="-215.6" font-family="Roboto" font-size="8.00"> &#160;&#160;&#160;</text>
<text text-anchor="start" x="163.5" y="-215.6" font-family="Roboto" font-size="8.00"> &#160;&#160;&#160;</text>
<text text-anchor="start" x="172.39" y="-215.6" font-family="Roboto" font-size="8.00">URLField</text>
<text text-anchor="start" x="205.73" y="-215.6" font-family="Roboto" font-size="8.00"> &#160;&#160;&#160;</text>
<text text-anchor="start" x="53.5" y="-203.6" font-family="Roboto" font-size="8.00"> &#160;&#160;&#160;</text>
<text text-anchor="start" x="62.39" y="-203.6" font-family="Roboto" font-size="8.00">publish_date</text>
<text text-anchor="start" x="107.76" y="-203.6" font-family="Roboto" font-size="8.00"> &#160;&#160;&#160;</text>
<text text-anchor="start" x="163.5" y="-203.6" font-family="Roboto" font-size="8.00"> &#160;&#160;&#160;</text>
<text text-anchor="start" x="172.39" y="-203.6" font-family="Roboto" font-size="8.00">DateTimeField</text>
<text text-anchor="start" x="224.11" y="-203.6" font-family="Roboto" font-size="8.00"> &#160;&#160;&#160;</text>
<text text-anchor="start" x="53.36" y="-191.6" font-family="Roboto" font-size="8.00"> &#160;&#160;&#160;</text>
<text text-anchor="start" x="62.25" y="-191.6" font-family="Roboto" font-size="8.00">score_user_denominator</text>
<text text-anchor="start" x="150.75" y="-191.6" font-family="Roboto" font-size="8.00"> &#160;&#160;&#160;</text>
<text text-anchor="start" x="163.5" y="-191.6" font-family="Roboto" font-size="8.00"> &#160;&#160;&#160;</text>
<text text-anchor="start" x="172.39" y="-191.6" font-family="Roboto" font-size="8.00">IntegerField</text>
<text text-anchor="start" x="214.64" y="-191.6" font-family="Roboto" font-size="8.00"> &#160;&#160;&#160;</text>
<text text-anchor="start" x="53.5" y="-179.6" font-family="Roboto" font-size="8.00"> &#160;&#160;&#160;</text>
<text text-anchor="start" x="62.39" y="-179.6" font-family="Roboto" font-size="8.00">score_user_numerator</text>
<text text-anchor="start" x="142.88" y="-179.6" font-family="Roboto" font-size="8.00"> &#160;&#160;&#160;</text>
<text text-anchor="start" x="163.5" y="-179.6" font-family="Roboto" font-size="8.00"> &#160;&#160;&#160;</text>
<text text-anchor="start" x="172.39" y="-179.6" font-family="Roboto" font-size="8.00">IntegerField</text>
<text text-anchor="start" x="214.64" y="-179.6" font-family="Roboto" font-size="8.00"> &#160;&#160;&#160;</text>
<text text-anchor="start" x="53.5" y="-167.6" font-family="Roboto" font-size="8.00"> &#160;&#160;&#160;</text>
<text text-anchor="start" x="62.39" y="-167.6" font-family="Roboto" font-size="8.00">sentiment_score</text>
<text text-anchor="start" x="121.09" y="-167.6" font-family="Roboto" font-size="8.00"> &#160;&#160;&#160;</text>
<text text-anchor="start" x="163.5" y="-167.6" font-family="Roboto" font-size="8.00"> &#160;&#160;&#160;</text>
<text text-anchor="start" x="172.39" y="-167.6" font-family="Roboto" font-size="8.00">FloatField</text>
<text text-anchor="start" x="207.52" y="-167.6" font-family="Roboto" font-size="8.00"> &#160;&#160;&#160;</text>
<text text-anchor="start" x="53.5" y="-155.6" font-family="Roboto" font-size="8.00"> &#160;&#160;&#160;</text>
<text text-anchor="start" x="62.39" y="-155.6" font-family="Roboto" font-size="8.00">text_full</text>
<text text-anchor="start" x="89.96" y="-155.6" font-family="Roboto" font-size="8.00"> &#160;&#160;&#160;</text>
<text text-anchor="start" x="163.5" y="-155.6" font-family="Roboto" font-size="8.00"> &#160;&#160;&#160;</text>
<text text-anchor="start" x="172.39" y="-155.6" font-family="Roboto" font-size="8.00">TextField</text>
<text text-anchor="start" x="204.4" y="-155.6" font-family="Roboto" font-size="8.00"> &#160;&#160;&#160;</text>
<text text-anchor="start" x="53.5" y="-143.6" font-family="Roboto" font-size="8.00"> &#160;&#160;&#160;</text>
<text text-anchor="start" x="62.39" y="-143.6" font-family="Roboto" font-size="8.00">text_snippet</text>
<text text-anchor="start" x="105.53" y="-143.6" font-family="Roboto" font-size="8.00"> &#160;&#160;&#160;</text>
<text text-anchor="start" x="163.5" y="-143.6" font-family="Roboto" font-size="8.00"> &#160;&#160;&#160;</text>
<text text-anchor="start" x="172.39" y="-143.6" font-family="Roboto" font-size="8.00">CharField</text>
<text text-anchor="start" x="207.07" y="-143.6" font-family="Roboto" font-size="8.00"> &#160;&#160;&#160;</text>
<text text-anchor="start" x="53.5" y="-131.6" font-family="Roboto" font-size="8.00"> &#160;&#160;&#160;</text>
<text text-anchor="start" x="62.39" y="-131.6" font-family="Roboto" font-size="8.00">title</text>
<text text-anchor="start" x="74.84" y="-131.6" font-family="Roboto" font-size="8.00"> &#160;&#160;&#160;</text>
<text text-anchor="start" x="163.5" y="-131.6" font-family="Roboto" font-size="8.00"> &#160;&#160;&#160;</text>
<text text-anchor="start" x="172.39" y="-131.6" font-family="Roboto" font-size="8.00">CharField</text>
<text text-anchor="start" x="207.07" y="-131.6" font-family="Roboto" font-size="8.00"> &#160;&#160;&#160;</text>
<text text-anchor="start" x="53.5" y="-119.6" font-family="Roboto" font-size="8.00"> &#160;&#160;&#160;</text>
<text text-anchor="start" x="62.39" y="-119.6" font-family="Roboto" font-size="8.00">url</text>
<text text-anchor="start" x="71.28" y="-119.6" font-family="Roboto" font-size="8.00"> &#160;&#160;&#160;</text>
<text text-anchor="start" x="163.5" y="-119.6" font-family="Roboto" font-size="8.00"> &#160;&#160;&#160;</text>
<text text-anchor="start" x="172.39" y="-119.6" font-family="Roboto" font-size="8.00">URLField</text>
<text text-anchor="start" x="205.73" y="-119.6" font-family="Roboto" font-size="8.00"> &#160;&#160;&#160;</text>
<polygon fill="none" stroke="black" points="50.5,-114 50.5,-280 238.5,-280 238.5,-114 50.5,-114"/>
</g>
<!-- articles_models_Publisher -->
<g id="node2" class="node">
<title>articles_models_Publisher</title>
<polygon fill="white" stroke="transparent" points="8,-4 8,-62 107,-62 107,-4 8,-4"/>
<polygon fill="#1b563f" stroke="transparent" points="9.5,-41 9.5,-61 106.5,-61 106.5,-41 9.5,-41"/>
<text text-anchor="start" x="21.6" y="-49" font-family="Roboto" font-size="8.00"> &#160;&#160;&#160;</text>
<text text-anchor="start" x="30.49" y="-49" font-family="Roboto" font-weight="bold" font-size="10.00" fill="white"> &#160;&#160;&#160;Publisher &#160;&#160;&#160;</text>
<text text-anchor="start" x="11.5" y="-33.6" font-family="Roboto" font-size="8.00"> &#160;&#160;&#160;</text>
<text text-anchor="start" x="20.39" y="-33.6" font-family="Roboto" font-weight="bold" font-size="8.00">id</text>
<text text-anchor="start" x="26.62" y="-33.6" font-family="Roboto" font-size="8.00"> &#160;&#160;&#160;</text>
<text text-anchor="start" x="52.5" y="-33.6" font-family="Roboto" font-size="8.00"> &#160;&#160;&#160;</text>
<text text-anchor="start" x="61.39" y="-33.6" font-family="Roboto" font-weight="bold" font-size="8.00">AutoField</text>
<text text-anchor="start" x="95.19" y="-33.6" font-family="Roboto" font-size="8.00"> &#160;&#160;&#160;</text>
<text text-anchor="start" x="11.1" y="-21.6" font-family="Roboto" font-size="8.00"> &#160;&#160;&#160;</text>
<text text-anchor="start" x="19.99" y="-21.6" font-family="Roboto" font-size="8.00">name</text>
<text text-anchor="start" x="40.01" y="-21.6" font-family="Roboto" font-size="8.00"> &#160;&#160;&#160;</text>
<text text-anchor="start" x="52.27" y="-21.6" font-family="Roboto" font-size="8.00"> &#160;&#160;&#160;</text>
<text text-anchor="start" x="61.16" y="-21.6" font-family="Roboto" font-size="8.00">CharField</text>
<text text-anchor="start" x="95.84" y="-21.6" font-family="Roboto" font-size="8.00"> &#160;&#160;&#160;</text>
<text text-anchor="start" x="11.5" y="-9.6" font-family="Roboto" font-size="8.00"> &#160;&#160;&#160;</text>
<text text-anchor="start" x="20.39" y="-9.6" font-family="Roboto" font-size="8.00">url</text>
<text text-anchor="start" x="29.28" y="-9.6" font-family="Roboto" font-size="8.00"> &#160;&#160;&#160;</text>
<text text-anchor="start" x="52.5" y="-9.6" font-family="Roboto" font-size="8.00"> &#160;&#160;&#160;</text>
<text text-anchor="start" x="61.39" y="-9.6" font-family="Roboto" font-size="8.00">URLField</text>
<text text-anchor="start" x="94.73" y="-9.6" font-family="Roboto" font-size="8.00"> &#160;&#160;&#160;</text>
<polygon fill="none" stroke="black" points="8,-4 8,-62 107,-62 107,-4 8,-4"/>
</g>
<!-- articles_models_Article&#45;&gt;articles_models_Publisher -->
<g id="edge1" class="edge">
<title>articles_models_Article&#45;&gt;articles_models_Publisher</title>
<path fill="none" stroke="black" d="M81.27,-102.64C79.4,-99.09 77.61,-95.53 75.92,-92 72.05,-83.89 68.72,-74.78 66,-66.22"/>
<ellipse fill="black" stroke="black" cx="83.32" cy="-106.41" rx="4" ry="4"/>
<text text-anchor="middle" x="108.29" y="-85.6" font-family="Roboto" font-size="8.00"> publisher (article)</text>
</g>
<!-- articles_models_Category -->
<g id="node3" class="node">
<title>articles_models_Category</title>
<polygon fill="white" stroke="transparent" points="163,-10 163,-56 262,-56 262,-10 163,-10"/>
<polygon fill="#1b563f" stroke="transparent" points="164.5,-35 164.5,-55 261.5,-55 261.5,-35 164.5,-35"/>
<text text-anchor="start" x="177.15" y="-43" font-family="Roboto" font-size="8.00"> &#160;&#160;&#160;</text>
<text text-anchor="start" x="186.04" y="-43" font-family="Roboto" font-weight="bold" font-size="10.00" fill="white"> &#160;&#160;&#160;Category &#160;&#160;&#160;</text>
<text text-anchor="start" x="166.5" y="-27.6" font-family="Roboto" font-size="8.00"> &#160;&#160;&#160;</text>
<text text-anchor="start" x="175.39" y="-27.6" font-family="Roboto" font-weight="bold" font-size="8.00">id</text>
<text text-anchor="start" x="181.62" y="-27.6" font-family="Roboto" font-size="8.00"> &#160;&#160;&#160;</text>
<text text-anchor="start" x="207.5" y="-27.6" font-family="Roboto" font-size="8.00"> &#160;&#160;&#160;</text>
<text text-anchor="start" x="216.39" y="-27.6" font-family="Roboto" font-weight="bold" font-size="8.00">AutoField</text>
<text text-anchor="start" x="250.19" y="-27.6" font-family="Roboto" font-size="8.00"> &#160;&#160;&#160;</text>
<text text-anchor="start" x="166.1" y="-15.6" font-family="Roboto" font-size="8.00"> &#160;&#160;&#160;</text>
<text text-anchor="start" x="174.99" y="-15.6" font-family="Roboto" font-size="8.00">name</text>
<text text-anchor="start" x="195.01" y="-15.6" font-family="Roboto" font-size="8.00"> &#160;&#160;&#160;</text>
<text text-anchor="start" x="207.27" y="-15.6" font-family="Roboto" font-size="8.00"> &#160;&#160;&#160;</text>
<text text-anchor="start" x="216.16" y="-15.6" font-family="Roboto" font-size="8.00">CharField</text>
<text text-anchor="start" x="250.84" y="-15.6" font-family="Roboto" font-size="8.00"> &#160;&#160;&#160;</text>
<polygon fill="none" stroke="black" points="163,-10 163,-56 262,-56 262,-10 163,-10"/>
</g>
<!-- articles_models_Article&#45;&gt;articles_models_Category -->
<g id="edge2" class="edge">
<title>articles_models_Article&#45;&gt;articles_models_Category</title>
<path fill="none" stroke="black" d="M138.87,-101.96C140.44,-95.72 142.6,-89.67 145.48,-84 148.9,-77.25 153.71,-71.17 159.2,-65.78"/>
<ellipse fill="black" stroke="black" cx="138.01" cy="-106.04" rx="4" ry="4"/>
<ellipse fill="black" stroke="black" cx="162.42" cy="-62.87" rx="4" ry="4"/>
<text text-anchor="middle" x="179.51" y="-85.6" font-family="Roboto" font-size="8.00"> categories (article)</text>
</g>
<!-- articles_models_Category&#45;&gt;articles_models_Article -->
<g id="edge3" class="edge">
<title>articles_models_Category&#45;&gt;articles_models_Article</title>
<path fill="none" stroke="black" d="M216.57,-68.24C216.56,-76.17 215.77,-84.49 213.5,-92 212.45,-95.48 211.24,-98.95 209.9,-102.39"/>
<ellipse fill="black" stroke="black" cx="216.44" cy="-64.16" rx="4" ry="4"/>
<ellipse fill="black" stroke="black" cx="208.3" cy="-106.2" rx="4" ry="4"/>
<text text-anchor="middle" x="248.4" y="-85.6" font-family="Roboto" font-size="8.00"> articles (category)</text>
</g>
<!-- articles_models_Image -->
<g id="node4" class="node">
<title>articles_models_Image</title>
<polygon fill="white" stroke="transparent" points="70.5,-332 70.5,-402 218.5,-402 218.5,-332 70.5,-332"/>
<polygon fill="#1b563f" stroke="transparent" points="71.5,-381 71.5,-401 217.5,-401 217.5,-381 71.5,-381"/>
<text text-anchor="start" x="115.04" y="-389" font-family="Roboto" font-size="8.00"> &#160;&#160;&#160;</text>
<text text-anchor="start" x="123.94" y="-389" font-family="Roboto" font-weight="bold" font-size="10.00" fill="white"> &#160;&#160;&#160;Image &#160;&#160;&#160;</text>
<text text-anchor="start" x="73.5" y="-373.6" font-family="Roboto" font-size="8.00"> &#160;&#160;&#160;</text>
<text text-anchor="start" x="82.39" y="-373.6" font-family="Roboto" font-weight="bold" font-size="8.00">id</text>
<text text-anchor="start" x="88.62" y="-373.6" font-family="Roboto" font-size="8.00"> &#160;&#160;&#160;</text>
<text text-anchor="start" x="143.5" y="-373.6" font-family="Roboto" font-size="8.00"> &#160;&#160;&#160;</text>
<text text-anchor="start" x="152.39" y="-373.6" font-family="Roboto" font-weight="bold" font-size="8.00">AutoField</text>
<text text-anchor="start" x="186.19" y="-373.6" font-family="Roboto" font-size="8.00"> &#160;&#160;&#160;</text>
<text text-anchor="start" x="73.5" y="-361.6" font-family="Roboto" font-size="8.00"> &#160;&#160;&#160;</text>
<text text-anchor="start" x="82.39" y="-361.6" font-family="Roboto" font-weight="bold" font-size="8.00">article</text>
<text text-anchor="start" x="103.73" y="-361.6" font-family="Roboto" font-size="8.00"> &#160;&#160;&#160;</text>
<text text-anchor="start" x="143.27" y="-361.6" font-family="Roboto" font-size="8.00"> &#160;&#160;&#160;</text>
<text text-anchor="start" x="152.16" y="-361.6" font-family="Roboto" font-weight="bold" font-size="8.00">ForeignKey (id)</text>
<text text-anchor="start" x="206.84" y="-361.6" font-family="Roboto" font-size="8.00"> &#160;&#160;&#160;</text>
<text text-anchor="start" x="73.37" y="-349.6" font-family="Roboto" font-size="8.00"> &#160;&#160;&#160;</text>
<text text-anchor="start" x="82.26" y="-349.6" font-family="Roboto" font-size="8.00">creation_date</text>
<text text-anchor="start" x="130.74" y="-349.6" font-family="Roboto" font-size="8.00"> &#160;&#160;&#160;</text>
<text text-anchor="start" x="143.5" y="-349.6" font-family="Roboto" font-size="8.00"> &#160;&#160;&#160;</text>
<text text-anchor="start" x="152.39" y="-349.6" font-family="Roboto" font-size="8.00">DateTimeField</text>
<text text-anchor="start" x="204.11" y="-349.6" font-family="Roboto" font-size="8.00"> &#160;&#160;&#160;</text>
<text text-anchor="start" x="73.5" y="-337.6" font-family="Roboto" font-size="8.00"> &#160;&#160;&#160;</text>
<text text-anchor="start" x="82.39" y="-337.6" font-family="Roboto" font-size="8.00">url</text>
<text text-anchor="start" x="91.28" y="-337.6" font-family="Roboto" font-size="8.00"> &#160;&#160;&#160;</text>
<text text-anchor="start" x="143.5" y="-337.6" font-family="Roboto" font-size="8.00"> &#160;&#160;&#160;</text>
<text text-anchor="start" x="152.39" y="-337.6" font-family="Roboto" font-size="8.00">URLField</text>
<text text-anchor="start" x="185.73" y="-337.6" font-family="Roboto" font-size="8.00"> &#160;&#160;&#160;</text>
<polygon fill="none" stroke="black" points="70.5,-332 70.5,-402 218.5,-402 218.5,-332 70.5,-332"/>
</g>
<!-- articles_models_Image&#45;&gt;articles_models_Article -->
<g id="edge4" class="edge">
<title>articles_models_Image&#45;&gt;articles_models_Article</title>
<path fill="none" stroke="black" d="M144.5,-319.67C144.5,-308.63 144.5,-296.49 144.5,-284.29"/>
<ellipse fill="black" stroke="black" cx="144.5" cy="-323.88" rx="4" ry="4"/>
<text text-anchor="middle" x="170.95" y="-303.6" font-family="Roboto" font-size="8.00"> article (image)</text>
</g>
</g>
</svg>
