<?xml version="1.0" standalone="no"?>
<!DOCTYPE svg PUBLIC "-//W3C//DTD SVG 20010904//EN"
 "http://www.w3.org/TR/2001/REC-SVG-20010904/DTD/svg10.dtd">
<svg version="1.0" xmlns="http://www.w3.org/2000/svg"
 width="456.000000pt" height="456.000000pt" viewBox="0 0 456.000000 456.000000"
 preserveAspectRatio="xMidYMid meet">
<metadata>
Created by potrace 1.11, written by Peter Selinger 2001-2013
</metadata>
<g transform="translate(0.000000,456.000000) scale(0.100000,-0.100000)"
fill="#000000" stroke="none">
<path d="M1995 4545 c-506 -72 -937 -279 -1296 -623 -202 -194 -340 -383 -469
-647 -110 -225 -173 -426 -212 -675 -14 -92 -18 -546 -5 -592 10 -37 34 -58
65 -58 22 0 54 27 154 128 l126 127 7 130 c15 295 78 551 192 779 275 551 759
923 1363 1047 103 21 141 24 360 24 216 0 258 -3 359 -23 732 -148 1316 -700
1497 -1413 74 -294 73 -643 -2 -944 -138 -546 -520 -1009 -1037 -1255 -903
-430 -1996 -81 -2481 791 l-36 64 363 362 362 363 405 -405 c313 -313 411
-405 430 -405 19 0 152 127 597 572 l573 573 0 -182 c0 -153 3 -184 16 -198
13 -13 40 -15 172 -13 156 3 157 3 169 28 10 19 12 128 11 488 l-3 464 -24 19
c-22 18 -45 19 -488 19 l-464 0 -24 -25 c-24 -23 -25 -29 -25 -155 0 -126 7
-164 34 -182 6 -4 92 -8 191 -8 l180 0 -452 -452 -453 -453 -402 402 c-222
220 -414 404 -427 408 -21 6 -84 -53 -592 -561 -403 -403 -569 -575 -569 -590
0 -56 123 -301 235 -469 363 -544 948 -907 1598 -990 137 -17 395 -20 535 -4
629 68 1207 399 1587 909 239 322 384 693 436 1113 15 128 6 479 -16 607 -82
482 -302 907 -645 1250 -343 343 -767 562 -1250 646 -133 22 -511 28 -645 9z"/>
</g>
</svg>
